<mxfile host="app.diagrams.net" modified="2023-09-06T03:08:31.608Z" agent="Mozilla/5.0 (Macintosh; Intel Mac OS X 10_15_7) AppleWebKit/537.36 (KHTML, like Gecko) Chrome/116.0.0.0 Safari/537.36" version="21.6.9" etag="lszgNL70zua4tQ-uFA0e" type="github">
  <diagram name="第 1 页" id="GatDNaAH6YqdhZstQepG">
    <mxGraphModel>
      <root>
        <mxCell id="0" />
        <mxCell id="1" parent="0" />
      </root>
    </mxGraphModel>
  </diagram>
</mxfile>
